Coordinates
version=1
nRows=4
nColumns=63
inDegrees=yes

Units are S.I. units (second, meters, Newtons, ...)
If the header above contains a line with 'inDegrees', this indicates whether rotational values are in degrees (yes) or radians (no).

endheader
time	pelvis_tilt	pelvis_list	pelvis_rotation	pelvis_tx	pelvis_ty	pelvis_tz	hip_flexion_r	hip_adduction_r	hip_rotation_r	knee_angle_r	knee_angle_r_beta	ankle_angle_r	subtalar_angle_r	mtp_angle_r	hip_flexion_l	hip_adduction_l	hip_rotation_l	knee_angle_l	knee_angle_l_beta	ankle_angle_l	subtalar_angle_l	mtp_angle_l	L5_S1_Flex_Ext	L5_S1_Lat_Bending	L5_S1_axial_rotation	L4_L5_Flex_Ext	L4_L5_Lat_Bending	L4_L5_axial_rotation	L3_L4_Flex_Ext	L3_L4_Lat_Bending	L3_L4_axial_rotation	L2_L3_Flex_Ext	L2_L3_Lat_Bending	L2_L3_axial_rotation	L1_L2_Flex_Ext	L1_L2_Lat_Bending	L1_L2_axial_rotation	L1_T12_Flex_Ext	L1_T12_Lat_Bending	L1_T12_axial_rotation	Abs_r3	Abs_r2	Abs_r1	Abs_t1	Abs_t2	neck_flexion	neck_bending	neck_rotation	arm_flex_r	arm_add_r	arm_rot_r	elbow_flex_r	pro_sup_r	wrist_flex_r	wrist_dev_r	arm_flex_l	arm_add_l	arm_rot_l	elbow_flex_l	pro_sup_l	wrist_flex_l	wrist_dev_l
      1.43333333	      4.21314234	     -4.75663912	     79.96209414	      0.26773877	      0.93334166	      0.55951964	      5.39711214	      1.09943511	    -10.52443890	     22.66771307	      0.39562623	     56.23972351	     18.59810682	      0.00000000	      2.85573546	     -1.53570934	    -10.10527391	     20.37455891	      0.35560314	     53.73158146	      2.06634675	      0.00000000	     -0.11542051	      0.01681853	      1.06024480	     -0.21434742	      0.02236865	      1.12651010	     -0.18962435	      0.04089258	      1.12651010	     -0.13191410	      0.04089258	      0.92771420	     -0.10717948	      0.03429635	      0.86144890	     -0.06595128	      0.02605191	      0.79518360	     -0.82443713	      0.19025462	      5.89676351	      0.00000000	      0.00000000	     19.03976089	     -8.58174828	      6.08745485	      1.26480473	    -10.04042036	     37.47841325	     57.89016327	      3.68514329	    -12.62610559	     16.49779076	     18.03670308	     -7.47132721	     76.36235495	     44.65641851	     65.61652437	     -0.24094116	     -4.10927130
      1.45000000	      3.99954691	     -4.82289528	     79.97876763	      0.26793986	      0.93364004	      0.55939386	      5.49470890	      0.88559079	    -10.50676842	     22.66837446	      0.39563777	     56.20070972	     18.55630628	      0.00000000	      2.93595004	     -1.25269150	     -9.51742799	     20.16826698	      0.35200266	     53.47462717	      1.32548163	      0.00000000	     -0.11295273	     -0.01539139	      1.12101923	     -0.20976451	     -0.02047055	      1.19108294	     -0.18557004	     -0.03742263	      1.19108294	     -0.12909367	     -0.03742263	      0.98089183	     -0.10488790	     -0.03138613	      0.91082813	     -0.06454119	     -0.02384127	      0.84076443	     -0.80681005	     -0.17411053	      6.23477268	      0.00000000	      0.00000000	     18.67545950	     -9.05339749	      5.03976522	      0.84421256	     -9.75211927	     36.57172303	     58.11704287	      3.62288767	    -12.94489586	     16.47382162	     18.16877472	     -7.48962721	     76.71478577	     44.61570064	     65.13796339	     -0.26100017	     -4.16365660
      1.46666667	      3.72359385	     -4.93583953	     79.94985518	      0.26835429	      0.93385819	      0.55931915	      5.64552785	      0.60929653	    -10.52313005	     22.71781114	      0.39650060	     56.21522337	     18.49599726	      0.00000000	      3.06621666	     -1.00506793	     -9.48625706	     19.97262791	      0.34858812	     53.29603108	      1.13177407	      0.00000000	     -0.10810837	     -0.05435965	      1.19918767	     -0.20076806	     -0.07229833	      1.27413689	     -0.17761125	     -0.13217004	      1.27413689	     -0.12355706	     -0.13217004	      1.04928921	     -0.10038944	     -0.11085019	      0.97433998	     -0.06177312	     -0.08420309	      0.89939075	     -0.77220730	     -0.61492718	      6.66952204	      0.00000000	      0.00000000	     18.29001980	     -9.73393245	      3.95648285	      0.45769284	     -9.45860848	     35.60713718	     58.21187736	      3.76258860	    -12.54531522	     16.98991708	     18.32946145	     -7.56759829	     77.06572858	     44.69815757	     64.57045734	     -0.17577259	     -4.09781977
      1.48333333	      3.31545737	     -5.10930029	     80.18649851	      0.26840622	      0.93386055	      0.55909450	      5.86506486	      0.14397859	    -10.99845406	     22.88050354	      0.39934012	     56.29309730	     18.49291179	      0.00000000	      3.30550282	     -0.43705099	     -8.09443455	     19.69901923	      0.34381274	     52.81665873	     -0.37096308	      0.00000000	     -0.09086621	     -0.10661759	      1.24167594	     -0.16874764	     -0.14180140	      1.31928069	     -0.14928410	     -0.25923002	      1.31928069	     -0.10385099	     -0.25923002	      1.08646645	     -0.08437836	     -0.21741460	      1.00886171	     -0.05192095	     -0.16515065	      0.93125696	     -0.64904825	     -1.20607954	      6.90582910	      0.00000000	      0.00000000	     17.78616860	    -10.58551784	      2.88784605	     -0.00796023	     -9.13811866	     34.54457219	     58.42643998	      3.67994205	    -12.37796368	     17.53576458	     18.61954441	     -7.70245226	     77.87027957	     44.78608913	     64.58955701	     -0.15768897	     -4.54333037
